# xmcd
# Copyright (C) 1995-1998 Ti Kan
#
# Track frame offsets:
#       150
#       30940
#       55320
#       78948
#       102106
#       119639
#       139265
#       158469
#       183345
#       207049
#       225101
#
# Disc length: 3246 seconds
#
# Revision: 2
# Processed by: cddbd v1.4b42PL1 Copyright (c) Steve Scherf et al.
# Submitted via: CD-Transfer v1.0
#
DISCID=7c0cac0b
DTITLE=Sesto Senso - Funàmboli
DYEAR=2001
DGENRE=
TTITLE0=Mi Destino
TTITLE1=Contro Vento
TTITLE2=Tutto Un Mondo
TTITLE3=No Puedo Decir
TTITLE4=Ricordati
TTITLE5=Fate Largo
TTITLE6=Ma Quanto Sei
TTITLE7=Funàmboli
TTITLE8=Caos
TTITLE9=Mister Mazza
TTITLE10=Un Rayo De Sol
EXTD=
EXTT0=
EXTT1=
EXTT2=
EXTT3=
EXTT4=
EXTT5=
EXTT6=
EXTT7=
EXTT8=
EXTT9=
EXTT10=
PLAYORDER=
